D:\school\WTK\thesis\model\3dpredictsim\Results\debug_batch\Pog_s1_tmt_bCst_d05_k1000_ig24_pas_GRF.mot
nRows=17
nColumns=19

name D:\school\WTK\thesis\model\3dpredictsim\Results\debug_batch\Pog_s1_tmt_bCst_d05_k1000_ig24_pas_GRF.mot
datacolumns 19
datarows 17
range 0.5529723112 0.7299234508
endheader
time 	ground_force_vx	ground_force_vy	ground_force_vz	ground_force_px	ground_force_py	ground_force_pz	1_ground_force_vx	1_ground_force_vy	1_ground_force_vz	1_ground_force_px	1_ground_force_py	1_ground_force_pz	ground_torque_x	ground_torque_y	ground_torque_z	1_ground_torque_x	1_ground_torque_y	1_ground_torque_z
        0.5529723112	      101.9332981570	      531.4836129782	        3.1951013986	        0.3805832169	        0.0000000000	        0.0356775371	      -74.5926120309	       59.9457265895	      -26.2679973771	        0.8651482691	        0.0000000000	       -0.0385917423	        0.0000000000	        0.0000000000	        0.0000000000	        0.0000000000	        0.0000000000	        0.0000000000	
        0.5640317575	       87.0828830055	      454.8148507742	        7.1721202319	        0.3837230802	        0.0000000000	        0.0348619612	     -118.1322994189	      132.4341811940	      -67.5106108326	        0.8728903895	        0.0000000000	       -0.0362540295	        0.0000000000	        0.0000000000	        0.0000000000	        0.0000000000	        0.0000000000	        0.0000000000	
        0.5750912037	       70.0237443584	      370.6410982631	        9.0802649465	        0.3882715340	        0.0000000000	        0.0333722675	      -45.7162302909	      262.7456806469	      -34.0159441197	        0.8785906051	        0.0000000000	       -0.0338256430	        0.0000000000	        0.0000000000	        0.0000000000	        0.0000000000	        0.0000000000	        0.0000000000	
        0.5861506499	       47.7546858809	      277.7503938052	        6.0334006880	        0.3956767406	        0.0000000000	        0.0303707919	      -38.0800685793	      407.3120444659	       -5.4715951229	        0.8817881460	        0.0000000000	       -0.0335386863	        0.0000000000	        0.0000000000	        0.0000000000	        0.0000000000	        0.0000000000	        0.0000000000	
        0.5972100961	       20.8940303725	      181.2186572705	        7.5551967169	        0.4093061268	        0.0000000000	        0.0241716459	      -66.4576464493	      580.2643715774	        3.9147484200	        0.8891747000	        0.0000000000	       -0.0356705182	        0.0000000000	        0.0000000000	        0.0000000000	        0.0000000000	        0.0000000000	        0.0000000000	
        0.6082695423	        4.7838540742	      134.6849828357	       11.8298154051	        0.4178974101	        0.0000000000	        0.0197712132	      -94.0300724803	      727.9912785344	       10.0800053116	        0.8961110881	        0.0000000000	       -0.0377553179	        0.0000000000	        0.0000000000	        0.0000000000	        0.0000000000	        0.0000000000	        0.0000000000	
        0.6193289886	        2.2449616224	      103.2894198584	       12.2470011857	        0.4183752402	        0.0000000000	        0.0198632074	     -106.8239552261	      803.5942183911	       11.8003865573	        0.9008525996	        0.0000000000	       -0.0390657830	        0.0000000000	        0.0000000000	        0.0000000000	        0.0000000000	        0.0000000000	        0.0000000000	
        0.6303884348	       -1.9869578155	       66.8031274384	       11.1388400119	        0.4188252628	        0.0000000000	        0.0199083496	     -106.0947044737	      821.4485550119	       12.4233625921	        0.9043070328	        0.0000000000	       -0.0398606381	        0.0000000000	        0.0000000000	        0.0000000000	        0.0000000000	        0.0000000000	        0.0000000000	
        0.6414478810	       -7.7461012330	       27.2459528778	        5.5373790375	        0.4184867214	        0.0000000000	        0.0196192150	      -99.5430782486	      811.2132968280	       12.5040179151	        0.9073712040	        0.0000000000	       -0.0403290297	        0.0000000000	        0.0000000000	        0.0000000000	        0.0000000000	        0.0000000000	        0.0000000000	
        0.6525073272	        0.0914926451	       -0.0903153567	       -0.0015207876	        0.0000000000	        0.0000000000	        0.0000000000	      -90.4126853044	      794.1988216837	       13.1391438022	        0.9106395988	        0.0000000000	       -0.0405549542	        0.0000000000	        0.0000000000	        0.0000000000	        0.0000000000	        0.0000000000	        0.0000000000	
        0.6635667735	        0.0001652870	       -0.0001338474	        0.0000096518	        0.0000000000	        0.0000000000	        0.0000000000	      -78.8020342380	      768.7696253545	       14.0542346900	        0.9140754161	        0.0000000000	       -0.0406619326	        0.0000000000	        0.0000000000	        0.0000000000	        0.0000000000	        0.0000000000	        0.0000000000	
        0.6746262197	        0.0000654993	       -0.0000460685	        0.0000049594	        0.0000000000	        0.0000000000	        0.0000000000	      -68.8729429240	      741.0698300746	       14.5587595490	        0.9182333349	        0.0000000000	       -0.0406657326	        0.0000000000	        0.0000000000	        0.0000000000	        0.0000000000	        0.0000000000	        0.0000000000	
        0.6856856659	        0.0006253127	       -0.0003942482	        0.0000524646	        0.0000000000	        0.0000000000	        0.0000000000	      -59.8737131969	      713.3759735964	       14.9935603335	        0.9227878540	        0.0000000000	       -0.0405862712	        0.0000000000	        0.0000000000	        0.0000000000	        0.0000000000	        0.0000000000	        0.0000000000	
        0.6967451121	        0.0049411815	       -0.0028555376	        0.0004381839	        0.0000000000	        0.0000000000	        0.0000000000	      -50.7435199909	      684.8648590981	       15.5676686239	        0.9272936860	        0.0000000000	       -0.0405381615	        0.0000000000	        0.0000000000	        0.0000000000	        0.0000000000	        0.0000000000	        0.0000000000	
        0.7078045584	       -0.0271851045	        0.0146173497	       -0.0025012856	        0.0000000000	        0.0000000000	        0.0000000000	      -42.3258565301	      657.9954803591	       16.1684225275	        0.9317734914	        0.0000000000	       -0.0405473662	        0.0000000000	        0.0000000000	        0.0000000000	        0.0000000000	        0.0000000000	        0.0000000000	
        0.7188640046	       -0.0185264712	        0.0093730779	       -0.0017521836	        0.0000000000	        0.0000000000	        0.0000000000	      -35.0584370693	      634.7720549689	       16.6102637742	        0.9362352956	        0.0000000000	       -0.0405996909	        0.0000000000	        0.0000000000	        0.0000000000	        0.0000000000	        0.0000000000	        0.0000000000	
        0.7299234508	       -0.0128847099	        0.0061887508	       -0.0012430392	        0.0000000000	        0.0000000000	        0.0000000000	      -28.8528492818	      615.6034975739	       17.1803885481	        0.9407591321	        0.0000000000	       -0.0406732131	        0.0000000000	        0.0000000000	        0.0000000000	        0.0000000000	        0.0000000000	        0.0000000000	
